{"title":"Comedy Nights With Kapil - 2nd March 2014 [KnowCrazy]","uid":9771616,"size":1274497003,"categoryP":"video","categoryS":"tv_shows","magnet":"?xt=urn:btih:c558b72e839441004e89aa04deca58f88572a5c9&amp;dn=Comedy+Nights+With+Kapil+-+2nd+March+2014+%5BKnowCrazy%5D&amp;tr=udp%3A%2F%2Ftracker.openbittorrent.com%3A80&amp;tr=udp%3A%2F%2Fopen.demonii.com%3A1337&amp;tr=udp%3A%2F%2Ftracker.coppersurfer.tk%3A6969&amp;tr=udp%3A%2F%2Fexodus.desync.com%3A6969","seeders":0,"leechers":1,"uploader":"dkt369","files":11,"time":1394958428,"description":"PLOT\n----\nThe show starts with Kapil having a set up of a Mushaira Mehfil. He starts speaking about the old times when Mushaira was very popular. Dadi then comes and tells Kapil that a Nawab will be joining them on the stage. Kapil explains to Dadi his plan of swindling the Nawab. Later, Madhuri Dixit and Juhi Chawla join Kapil on the stage for the promotion of their forthcoming movie - Gulaab Gang. Watch the episode and enjoy the fun.\n\n\nGENERAL\n-------\nComplete name : Comedy Nights With Kapil - 2nd March 2014 - Full EpisodeComedy Nights With Kapil - Kapil ke Ghar Gulaab Gang ka Hamla - 2nd March 2014 - Full Episode.mp4 \nFormat : MPEG-4 \nFormat profile : Base Media / Version 2 \nCodec ID : mp42 \nFile size : 1.16 GiB \nDuration : 1h 3mn \nOverall bit rate mode : Variable \nOverall bit rate : 2 596 Kbps \nEncoded date : UTC 2014-03-09 01:40:36 \nTagged date : UTC 2014-03-09 01:40:36 \ngsst : 0 \ngstd : 3832498 \ngssd : BADC23462HH1394937073046486 \ngshh : r6---sn-cvh7zn7z.googlevideo.com \n\n\nVIDEO\n-----\nID : 1 \nFormat : AVC \nFormat/Info : Advanced Video Codec \nFormat profile : &lt;a class=&quot;__cf_email__&quot; href=&quot;/cdn-cgi/l/email-protection&quot; data-cfemail=&quot;357d5c525d7579061b04&quot;&gt;[email&amp;#160;protected]&lt;/a&gt;&lt;script cf-hash='f9e31' type=&quot;text/javascript&quot;&gt;\n/* &lt;![CDATA[ */!function(){try{var t=&quot;currentScript&quot;in document?document.currentScript:function(){for(var t=document.getElementsByTagName(&quot;script&quot;),e=t.length;e--;)if(t[e].getAttribute(&quot;cf-hash&quot;))return t[e]}();if(t&amp;&amp;t.previousSibling){var e,r,n,i,c=t.previousSibling,a=c.getAttribute(&quot;data-cfemail&quot;);if(a){for(e=&quot;&quot;,r=parseInt(a.substr(0,2),16),n=2;a.length-n;n+=2)i=parseInt(a.substr(n,2),16)^r,e+=String.fromCharCode(i);e=document.createTextNode(e),c.parentNode.replaceChild(e,c)}}}catch(u){}}();/* ]]&gt; */&lt;/script&gt; \nFormat settings, CABAC : Yes \nFormat settings, ReFrames : 1 frame \nCodec ID : avc1 \nCodec ID/Info : Advanced Video Coding \nDuration : 1h 3mn \nBit rate : 2 402 Kbps \nMaximum bit rate : 4 829 Kbps \nWidth : 1 280 pixels \nHeight : 720 pixels \nDisplay aspect ratio : 16:9 \nFrame rate mode : Constant \nFrame rate : 25.000 fps \nColor space : YUV \nChroma subsampling : 4:2:0 \nBit depth : 8 bits \nScan type : Progressive \nBits/(Pixel*Frame) : 0.104 \nStream size : 1.07 GiB (93%) \nTagged date : UTC 2014-03-09 01:46:07 \n\n\nAUDIO\n-----\nID : 2 \nFormat : AAC \nFormat/Info : Advanced Audio Codec \nFormat profile : LC \nCodec ID : 40 \nDuration : 1h 3mn \nBit rate mode : Variable \nBit rate : 192 Kbps \nMaximum bit rate : 201 Kbps \nChannel(s) : 2 channels \nChannel positions : Front: L R \nSampling rate : 44.1 KHz \nCompression mode : Lossy \nStream size : 87.7 MiB (7%) \nTitle : IsoMedia File Produced by Google, 5-11-2011 \nEncoded date : UTC 2014-03-09 01:44:04 \nTagged date : UTC 2014-03-09 01:46:07\n\n\nSCREENSHOTS\n----------- &lt;a href=&quot;\nhttp://bayimg.com/NALheAafn&quot; rel=&quot;nofollow&quot; target=&quot;_NEW&quot;&gt;\nhttp://bayimg.com/NALheAafn&lt;/a&gt; &lt;a href=&quot;\nhttp://bayimg.com/nAlHFaaFN&quot; rel=&quot;nofollow&quot; target=&quot;_NEW&quot;&gt;\nhttp://bayimg.com/nAlHFaaFN&lt;/a&gt; &lt;a href=&quot;\nhttp://bayimg.com/naLHGAAfn&quot; rel=&quot;nofollow&quot; target=&quot;_NEW&quot;&gt;\nhttp://bayimg.com/naLHGAAfn&lt;/a&gt; &lt;a href=&quot;\nhttp://bayimg.com/nAlHhAAFn&quot; rel=&quot;nofollow&quot; target=&quot;_NEW&quot;&gt;\nhttp://bayimg.com/nAlHhAAFn&lt;/a&gt; &lt;a href=&quot;\nhttp://bayimg.com/NALHiAafN&quot; rel=&quot;nofollow&quot; target=&quot;_NEW&quot;&gt;\nhttp://bayimg.com/NALHiAafN&lt;/a&gt; &lt;a href=&quot;\nhttp://bayimg.com/nalHJaaFN&quot; rel=&quot;nofollow&quot; target=&quot;_NEW&quot;&gt;\nhttp://bayimg.com/nalHJaaFN&lt;/a&gt; &lt;a href=&quot;\nhttp://bayimg.com/nALhkAAFN&quot; rel=&quot;nofollow&quot; target=&quot;_NEW&quot;&gt;\nhttp://bayimg.com/nALhkAAFN&lt;/a&gt;","torrent":{"xt":"urn:btih:c558b72e839441004e89aa04deca58f88572a5c9","amp;dn":"Comedy+Nights+With+Kapil+-+2nd+March+2014+%5BKnowCrazy%5D","amp;tr":["udp%3A%2F%2Ftracker.openbittorrent.com%3A80","udp%3A%2F%2Fopen.demonii.com%3A1337","udp%3A%2F%2Ftracker.coppersurfer.tk%3A6969","udp%3A%2F%2Fexodus.desync.com%3A6969"],"infoHash":"c558b72e839441004e89aa04deca58f88572a5c9","infoHashBuffer":{"type":"Buffer","data":[197,88,183,46,131,148,65,0,78,137,170,4,222,202,88,248,133,114,165,201]},"announce":[],"urlList":[]}}